<svg width="31" height="44" viewBox="0 0 31 44" fill="none" xmlns="http://www.w3.org/2000/svg">
<path d="M15.4688 0C6.93928 0 0 6.93928 0 15.4688C0 18.3506 0.798274 21.163 2.30905 23.6029L14.5882 43.3906C14.8234 43.7697 15.2378 44 15.6835 44C15.6869 44 15.6903 44 15.6937 44C16.1433 43.9965 16.5585 43.759 16.7894 43.3733L28.7556 23.3939C30.1831 21.0055 30.9375 18.2651 30.9375 15.4688C30.9375 6.93928 23.9982 0 15.4688 0ZM26.5432 22.0703L15.664 40.2347L4.50029 22.2446C3.24277 20.2137 2.56094 17.8707 2.56094 15.4688C2.56094 8.36086 8.36086 2.56094 15.4688 2.56094C22.5766 2.56094 28.368 8.36086 28.368 15.4688C28.368 17.7995 27.7311 20.0826 26.5432 22.0703Z" fill="#FF5C2B"/>
<path d="M15.4688 7.73474C11.204 7.73474 7.73438 11.2044 7.73438 15.4691C7.73438 19.7066 11.1476 23.2035 15.4688 23.2035C19.8432 23.2035 23.2031 19.66 23.2031 15.4691C23.2031 11.2044 19.7335 7.73474 15.4688 7.73474ZM15.4688 20.6426C12.6107 20.6426 10.2953 18.3194 10.2953 15.4691C10.2953 12.626 12.6256 10.2957 15.4688 10.2957C18.3119 10.2957 20.6336 12.626 20.6336 15.4691C20.6336 18.2778 18.3721 20.6426 15.4688 20.6426Z" fill="#FF5C2B"/>
</svg>
