<svg width="44" height="44" viewBox="0 0 44 44" fill="none" xmlns="http://www.w3.org/2000/svg">
<path d="M37.5564 6.44359C33.4012 2.28834 27.8764 0 22 0C16.1236 0 10.5988 2.28834 6.44359 6.44359C2.28843 10.5988 0 16.1236 0 22C0 27.8764 2.28843 33.4012 6.44359 37.5564C10.5988 41.7117 16.1236 44 22 44C27.8764 44 33.4012 41.7117 37.5564 37.5564C41.7116 33.4012 44 27.8764 44 22C44 16.1236 41.7116 10.5988 37.5564 6.44359ZM22 41.4219C11.2907 41.4219 2.57812 32.7093 2.57812 22C2.57812 11.2907 11.2907 2.57812 22 2.57812C32.7093 2.57812 41.4219 11.2907 41.4219 22C41.4219 32.7093 32.7093 41.4219 22 41.4219Z" fill="#A1D33C"/>
<path d="M23.3807 20.7104H20.6192C19.0459 20.7104 17.766 19.4305 17.766 17.8574C17.766 16.2841 19.046 15.0042 20.6192 15.0042H26.1421C26.854 15.0042 27.4312 14.4271 27.4312 13.7152C27.4312 13.0033 26.854 12.4261 26.1421 12.4261H23.289V9.573C23.289 8.86109 22.7118 8.28394 21.9999 8.28394C21.288 8.28394 20.7108 8.86109 20.7108 9.573V12.4261H20.6192C17.6244 12.4261 15.188 14.8626 15.188 17.8574C15.188 20.8521 17.6245 23.2885 20.6192 23.2885H23.3808C24.9539 23.2885 26.2338 24.5685 26.2338 26.1417C26.2338 27.7148 24.9539 28.9948 23.3808 28.9948H17.8578C17.1459 28.9948 16.5687 29.5719 16.5687 30.2838C16.5687 30.9958 17.1459 31.5729 17.8578 31.5729H20.7108V34.4261C20.7108 35.138 21.288 35.7152 21.9999 35.7152C22.7118 35.7152 23.289 35.138 23.289 34.4261V31.5729H23.3807C26.3754 31.5729 28.8118 29.1364 28.8118 26.1417C28.8118 23.1469 26.3754 20.7104 23.3807 20.7104Z" fill="#A1D33C"/>
</svg>
