<svg width="44" height="44" viewBox="0 0 44 44" fill="none" xmlns="http://www.w3.org/2000/svg">
<path d="M22 0C9.8497 0 0 9.8497 0 22C0 34.1503 9.8497 44 22 44C34.1503 44 44 34.1503 44 22C43.9837 9.85649 34.1435 0.0163146 22 0ZM16.5618 2.22472C14.3838 4.27739 12.7322 6.82445 11.7465 9.65034C10.1092 9.25273 8.50584 8.72708 6.95101 8.0782C9.54615 5.269 12.8751 3.24154 16.5618 2.22472ZM5.94247 9.24494C7.65884 10.0216 9.43862 10.6501 11.262 11.1236C10.2298 14.4049 9.68012 17.8189 9.63056 21.2584V21.2288H1.5227C1.67509 16.864 3.22424 12.6633 5.94247 9.24494ZM5.94247 34.676C3.22424 31.2575 1.67509 27.0569 1.5227 22.6921L9.63056 22.7119C9.67728 26.1613 10.2269 29.5856 11.262 32.8764C9.44097 33.3243 7.66144 33.9263 5.94247 34.676ZM6.95101 35.902V35.8427C8.50584 35.1937 10.1092 34.668 11.7465 34.2706C12.7208 37.1249 14.3732 39.7001 16.5618 41.7753C12.8728 40.7529 9.54367 38.7184 6.95101 35.902ZM21.2584 42.4476C17.9362 42.0225 15.0292 38.7991 13.1802 34.0135C15.8406 33.4779 18.5449 33.19 21.2584 33.1533V42.4476ZM21.2584 31.6108C18.3779 31.6475 15.5074 31.9587 12.6858 32.5402C11.6962 29.3662 11.1699 26.0659 11.1236 22.7416V22.7119H21.2584V31.6108ZM21.2584 21.2288H11.1236C11.1614 17.8745 11.6877 14.5436 12.6858 11.3411C15.5054 11.9425 18.3759 12.2737 21.2584 12.3299V21.2288ZM21.2584 10.8467C18.5453 10.8131 15.841 10.5285 13.1802 9.9964C15.0292 5.19101 17.9362 1.97753 21.2584 1.55236V10.8467ZM38.0575 9.30427C40.7758 12.7227 42.3249 16.9233 42.4773 21.2881H34.3694C34.3247 17.832 33.7749 14.401 32.738 11.1038C34.559 10.6559 36.3386 10.0539 38.0575 9.30427ZM37.0391 8.09798C35.4843 8.74685 33.8809 9.27251 32.2436 9.67011C31.2636 6.83804 29.6152 4.28407 27.4382 2.22472C31.1236 3.24871 34.4492 5.28309 37.0391 8.09798ZM22.7416 1.55236C26.0638 1.97753 28.9708 5.2009 30.8198 9.98652C28.1594 10.5219 25.4551 10.8099 22.7416 10.8467V1.55236ZM22.7416 12.3299C25.6221 12.2933 28.4927 11.9821 31.3142 11.4004C32.3123 14.6029 32.8386 17.9338 32.8764 21.2881H22.7416V12.3299ZM22.7416 22.7712H32.8764C32.8386 26.1255 32.3123 29.4564 31.3142 32.6589C28.4946 32.0573 25.6241 31.7263 22.7416 31.6701V22.7712ZM22.7416 42.4476V33.1533C25.4547 33.1868 28.159 33.4714 30.8198 34.0036C28.9708 38.809 26.0638 42.0225 22.7416 42.4476ZM27.4382 41.7753C29.6176 39.7198 31.2693 37.1692 32.2535 34.3398C33.8908 34.7373 35.4942 35.2629 37.049 35.9119C34.4551 38.7247 31.126 40.7557 27.4382 41.7753ZM38.0575 34.7551C36.3412 33.9784 34.5615 33.3498 32.738 32.8764C33.7702 29.5951 34.3199 26.1811 34.3694 22.7416V22.7712H42.4773C42.3249 27.136 40.7758 31.3367 38.0575 34.7551Z" fill="#FFDC59"/>
</svg>
