<svg width="70" height="70" viewBox="0 0 70 70" fill="none" xmlns="http://www.w3.org/2000/svg">
<path d="M31.207 24.9168L31.2069 24.917L31.2158 24.9231L44.7602 34.1866C45.0819 34.4419 45.1263 34.7061 45.0869 34.9181C45.0413 35.1629 44.8806 35.3547 44.7836 35.4129L44.7759 35.4175L44.7686 35.4225L31.2158 44.6918L31.2031 44.7004L31.1914 44.7104C31.0873 44.7984 30.8154 44.8709 30.5493 44.7864C30.3228 44.7144 30.0931 44.5238 30.05 44.0633V25.5502C30.0701 25.3114 30.1397 25.1533 30.2211 25.0487C30.3038 24.9424 30.4116 24.8743 30.533 24.8364C30.7929 24.7551 31.0785 24.822 31.207 24.9168Z" fill="#A1D33C" stroke="white" stroke-width="0.6"/>
<path d="M0.3 35C0.3 15.8657 15.8657 0.3 35 0.3C54.1343 0.3 69.7 15.8657 69.7 35C69.7 54.1343 54.1343 69.7 35 69.7C15.8657 69.7 0.3 54.1343 0.3 35ZM2.68571 35C2.68571 52.8228 17.1772 67.3143 35 67.3143C52.8228 67.3143 67.3143 52.8228 67.3143 35C67.3143 17.1772 52.8228 2.68571 35 2.68571C17.1772 2.68571 2.68571 17.1772 2.68571 35Z" fill="#A1D33C" stroke="white" stroke-width="0.6"/>
</svg>
